<mxfile host="app.diagrams.net" modified="2024-06-26T21:16:04.412Z" agent="Mozilla/5.0 (Macintosh; Intel Mac OS X 10_15_7) AppleWebKit/537.36 (KHTML, like Gecko) Chrome/126.0.0.0 Safari/537.36" etag="l7YHZALFXNiO4KgxMTH9" version="24.6.3" type="device">
  <diagram id="C5RBs43oDa-KdzZeNtuy" name="Page-1">
    <mxGraphModel dx="709" dy="637" grid="1" gridSize="10" guides="1" tooltips="1" connect="1" arrows="1" fold="1" page="1" pageScale="1" pageWidth="827" pageHeight="1169" math="0" shadow="0">
      <root>
        <mxCell id="WIyWlLk6GJQsqaUBKTNV-0" />
        <mxCell id="WIyWlLk6GJQsqaUBKTNV-1" parent="WIyWlLk6GJQsqaUBKTNV-0" />
        <mxCell id="987P8wWxBNPvXJOl8-6f-2" style="edgeStyle=orthogonalEdgeStyle;rounded=0;orthogonalLoop=1;jettySize=auto;html=1;fontSize=12;startSize=8;endSize=8;" edge="1" parent="WIyWlLk6GJQsqaUBKTNV-1">
          <mxGeometry relative="1" as="geometry">
            <mxPoint x="56" y="240" as="targetPoint" />
            <mxPoint x="123.99714285714288" y="100" as="sourcePoint" />
            <Array as="points">
              <mxPoint x="160" y="100" />
              <mxPoint x="160" y="101" />
              <mxPoint x="56" y="101" />
            </Array>
          </mxGeometry>
        </mxCell>
        <mxCell id="987P8wWxBNPvXJOl8-6f-6" style="edgeStyle=none;curved=1;rounded=0;orthogonalLoop=1;jettySize=auto;html=1;exitX=0.25;exitY=1;exitDx=0;exitDy=0;fontSize=12;startSize=8;endSize=8;" edge="1" parent="WIyWlLk6GJQsqaUBKTNV-1">
          <mxGeometry relative="1" as="geometry">
            <mxPoint x="240" y="240" as="targetPoint" />
            <mxPoint x="240.4999999999999" y="120" as="sourcePoint" />
          </mxGeometry>
        </mxCell>
        <mxCell id="987P8wWxBNPvXJOl8-6f-8" style="edgeStyle=none;curved=1;rounded=0;orthogonalLoop=1;jettySize=auto;html=1;fontSize=12;startSize=8;endSize=8;" edge="1" parent="WIyWlLk6GJQsqaUBKTNV-1">
          <mxGeometry relative="1" as="geometry">
            <mxPoint x="414" y="240" as="targetPoint" />
            <mxPoint x="414" y="120" as="sourcePoint" />
          </mxGeometry>
        </mxCell>
        <mxCell id="WIyWlLk6GJQsqaUBKTNV-3" value="Separate two inputs as cordinates to place them in quadrents" style="rounded=1;whiteSpace=wrap;html=1;fontSize=12;glass=0;strokeWidth=1;shadow=0;" parent="WIyWlLk6GJQsqaUBKTNV-1" vertex="1">
          <mxGeometry x="160" y="80" width="350" height="40" as="geometry" />
        </mxCell>
        <mxCell id="987P8wWxBNPvXJOl8-6f-3" style="edgeStyle=orthogonalEdgeStyle;rounded=0;orthogonalLoop=1;jettySize=auto;html=1;fontSize=12;startSize=8;endSize=8;exitX=1;exitY=0.5;exitDx=0;exitDy=0;" edge="1" parent="WIyWlLk6GJQsqaUBKTNV-1" source="WIyWlLk6GJQsqaUBKTNV-3">
          <mxGeometry relative="1" as="geometry">
            <mxPoint x="610" y="240" as="targetPoint" />
            <mxPoint x="590" y="100" as="sourcePoint" />
          </mxGeometry>
        </mxCell>
        <mxCell id="987P8wWxBNPvXJOl8-6f-4" value="if (X,Y)&amp;nbsp;&lt;div&gt;Quadrant=1&lt;/div&gt;" style="rounded=1;whiteSpace=wrap;html=1;" vertex="1" parent="WIyWlLk6GJQsqaUBKTNV-1">
          <mxGeometry y="240" width="120" height="60" as="geometry" />
        </mxCell>
        <mxCell id="987P8wWxBNPvXJOl8-6f-5" value="if (X,-Y)&lt;div&gt;Quadrant 4&lt;/div&gt;" style="rounded=1;whiteSpace=wrap;html=1;" vertex="1" parent="WIyWlLk6GJQsqaUBKTNV-1">
          <mxGeometry x="550" y="240" width="120" height="60" as="geometry" />
        </mxCell>
        <mxCell id="987P8wWxBNPvXJOl8-6f-7" value="If (-X,Y)&lt;div&gt;Quadrant=2&lt;/div&gt;" style="rounded=1;whiteSpace=wrap;html=1;" vertex="1" parent="WIyWlLk6GJQsqaUBKTNV-1">
          <mxGeometry x="170" y="240" width="120" height="60" as="geometry" />
        </mxCell>
        <mxCell id="987P8wWxBNPvXJOl8-6f-9" value="If (-X,-Y)&lt;div&gt;Quadrant=3&lt;/div&gt;" style="rounded=1;whiteSpace=wrap;html=1;" vertex="1" parent="WIyWlLk6GJQsqaUBKTNV-1">
          <mxGeometry x="354" y="240" width="120" height="60" as="geometry" />
        </mxCell>
        <mxCell id="987P8wWxBNPvXJOl8-6f-11" style="edgeStyle=none;curved=1;rounded=0;orthogonalLoop=1;jettySize=auto;html=1;fontSize=12;startSize=8;endSize=8;" edge="1" parent="WIyWlLk6GJQsqaUBKTNV-1" source="987P8wWxBNPvXJOl8-6f-10" target="987P8wWxBNPvXJOl8-6f-4">
          <mxGeometry relative="1" as="geometry" />
        </mxCell>
        <mxCell id="987P8wWxBNPvXJOl8-6f-12" style="edgeStyle=none;curved=1;rounded=0;orthogonalLoop=1;jettySize=auto;html=1;fontSize=12;startSize=8;endSize=8;" edge="1" parent="WIyWlLk6GJQsqaUBKTNV-1" source="987P8wWxBNPvXJOl8-6f-10" target="987P8wWxBNPvXJOl8-6f-7">
          <mxGeometry relative="1" as="geometry" />
        </mxCell>
        <mxCell id="987P8wWxBNPvXJOl8-6f-13" style="edgeStyle=none;curved=1;rounded=0;orthogonalLoop=1;jettySize=auto;html=1;fontSize=12;startSize=8;endSize=8;" edge="1" parent="WIyWlLk6GJQsqaUBKTNV-1" source="987P8wWxBNPvXJOl8-6f-10" target="987P8wWxBNPvXJOl8-6f-9">
          <mxGeometry relative="1" as="geometry" />
        </mxCell>
        <mxCell id="987P8wWxBNPvXJOl8-6f-14" style="edgeStyle=none;curved=1;rounded=0;orthogonalLoop=1;jettySize=auto;html=1;entryX=0.25;entryY=1;entryDx=0;entryDy=0;fontSize=12;startSize=8;endSize=8;" edge="1" parent="WIyWlLk6GJQsqaUBKTNV-1" source="987P8wWxBNPvXJOl8-6f-10" target="987P8wWxBNPvXJOl8-6f-5">
          <mxGeometry relative="1" as="geometry" />
        </mxCell>
        <mxCell id="987P8wWxBNPvXJOl8-6f-10" value="Print Quadrant" style="rounded=0;whiteSpace=wrap;html=1;" vertex="1" parent="WIyWlLk6GJQsqaUBKTNV-1">
          <mxGeometry x="280" y="525" width="120" height="60" as="geometry" />
        </mxCell>
      </root>
    </mxGraphModel>
  </diagram>
</mxfile>
